<svg xmlns="http://www.w3.org/2000/svg" width="218" height="83" fill="none">
    <path fill="#fff"
          d="m206.589 33.7415-6.867 14.7569h4.394l.754-1.6906h5.147l.754 1.6906h4.394l-6.867-14.7569h-1.709Zm-.434 9.8208 1.187-3.1893h.198l1.187 3.1893h-2.572Zm-44.519-31.9212H98.5142l10.5118 22.1097h4.474l3.758 8.0458 3.758-8.0458h4.512l-6.768 14.757h-2.722l14.035 29.5092 14.279-30.0291c-1.154.5526-2.454.843-3.815.843-4.191 0-7.949-3.3251-7.949-7.7086 0-4.3836 3.758-7.7087 7.949-7.7087 2.826 0 5.379 1.2411 6.923 3.4797l-3.362 2.0466c-.754-1.021-1.818-1.7094-3.363-1.7094-2.058 0-3.838 1.8686-3.838 3.8918 0 2.0231 1.78 3.8917 3.838 3.8917 1.545 0 2.609-.6884 3.363-1.7093l1.926 1.1708 3.381-7.1092h2.897v11.1321h4.036V37.3663h4.055v-3.6202h-9.264l10.512-22.105h-.005Zm-30.927 36.8526h-4.036V33.7461h4.036v14.7476Zm38.58-15.0848c-4.408 0-8.227 3.3252-8.227 7.7087s3.814 7.7086 8.227 7.7086 8.228-3.3251 8.228-7.7086-3.815-7.7087-8.228-7.7087Zm0 11.6052c-2.157 0-3.914-1.7516-3.914-3.8918 0-2.1403 1.762-3.8918 3.914-3.8918s3.914 1.7515 3.914 3.8918c0 2.1402-1.762 3.8918-3.914 3.8918Zm22.446-5.901c0-3.0863-2.473-5.367-5.595-5.367h-6.744v14.7476h4.036v-4.0136h1.898l1.841 4.0136h4.531l-2.51-4.9549c1.422-.9835 2.552-2.44 2.552-4.4257h-.009Zm-5.736 1.7516h-2.572v-3.4984h2.572c.909 0 1.502 1.0209 1.502 1.7515 0 .7306-.593 1.7515-1.502 1.7515v-.0046Zm11.75-7.1186h-4.036v14.7476h4.036V33.7461ZM18.89 36.9822l-3.2919 2.0044c-.7347-1.0022-1.7802-1.6766-3.292-1.6766-2.0157 0-3.75823 1.8312-3.75823 3.8122 0 1.981 1.74253 3.8122 3.75823 3.8122 1.5118 0 2.5573-.6744 3.292-1.6767l3.2919 2.0045c-1.5117 2.1964-4.0078 3.4094-6.777 3.4094-4.10672 0-7.78488-3.2549-7.78488-7.5494 0-4.2946 3.67816-7.5494 7.78488-7.5494 2.7692 0 5.27 1.2129 6.777 3.4094Zm11.1947 6.5098 2.4584 4.8518h-4.4364l-1.799-3.9292h-1.8603v3.9292h-3.9513V33.9006h6.6028c3.0612 0 5.4819 2.234 5.4819 5.2593 0 1.9436-1.1021 3.372-2.5008 4.3321h.0047Zm-3.1177-6.0461h-2.5196v3.4281h2.5196c.8901 0 1.4741-1.0022 1.4741-1.7141 0-.7118-.5793-1.714-1.4741-1.714Zm18.4751 7.3573v3.5453H34.5396V33.9053h10.9025v3.5452h-6.9512v1.9436h5.0345v3.4656h-5.0345v1.9435h6.9512Zm16.3045 3.5406h-4.2998l-.7347-1.6579h-5.0345l-.7347 1.6579h-4.2998l6.7205-14.4432h1.6672l6.7205 14.4432h-.0047Zm-6.2967-4.8331-1.1632-3.1191h-.1931l-1.1633 3.1191h2.5196Zm12.5135-6.0648v10.9026h-3.9513V37.4459H60.042v-3.5453h11.8916v3.5453h-3.9702Zm5.3828-3.5453h3.9513v14.4432h-3.9513V33.9006Zm5.3081 0h4.4175l3.6782 7.8773 3.6782-7.8773h4.4175l-6.6216 14.4432h-2.9435L78.659 33.9006h-.0047Zm28.3087 10.9026v3.5453H96.0605V33.9053h10.9025v3.5452h-6.951v1.9436h5.034v3.4656h-5.034v1.9435h6.951Z"/>
</svg>
