<svg width="14" height="14" viewBox="0 0 14 14" fill="none" xmlns="http://www.w3.org/2000/svg">
<path d="M0.997192 5.11691L3.38505 6.00395L3.38085 12.394L0.997192 11.5154V5.11691Z" fill="white"/>
<path d="M3.48226 3.56534C3.75616 4.37557 3.39323 5.03236 2.6716 5.03236C1.95 5.03236 1.143 4.37557 0.869092 3.56534C0.595217 2.75519 0.958151 2.09839 1.67975 2.09839C2.40138 2.09839 3.20836 2.75519 3.48226 3.56534Z" fill="white"/>
<path d="M6.42314 5.11691L4.03528 6.00395L4.03948 12.394L6.42314 11.5154V5.11691Z" fill="white"/>
<path d="M3.92263 3.56534C3.64874 4.37557 4.01167 5.03236 4.73328 5.03236C5.45489 5.03236 6.26188 4.37557 6.53581 3.56534C6.80968 2.75519 6.44676 2.09839 5.72515 2.09839C5.00351 2.09839 4.19652 2.75519 3.92263 3.56534Z" fill="white"/>
<path d="M7.03409 5.11691L9.42195 6.00395L9.41774 12.394L7.03409 11.5154V5.11691Z" fill="white"/>
<path d="M9.53463 3.56534C9.80856 4.37557 9.4456 5.03236 8.724 5.03236C8.00233 5.03236 7.19537 4.37557 6.92147 3.56534C6.64757 2.75519 7.01053 2.09839 7.7321 2.09839C8.45374 2.09839 9.2607 2.75519 9.53463 3.56534Z" fill="white"/>
<path d="M13.2224 1.31231V3.50679C13.2224 3.50679 12.4488 3.2041 12.3563 3.98604C12.3479 4.81843 12.3563 5.11691 12.3563 5.11691L13.2224 4.83525V6.76067L12.3526 7.07176V11.5616L9.97688 12.4444V4.50733C9.97688 4.50733 9.92643 1.64863 13.2224 1.31231Z" fill="white"/>
</svg>
