<svg width="34" height="26" viewBox="0 0 34 26" fill="none" xmlns="http://www.w3.org/2000/svg">
<mask id="path-1-inside-1_45_316" fill="white">
<path d="M10 0H30C32.2091 0 34 1.79086 34 4V22C34 24.2091 32.2091 26 30 26H10V0Z"/>
</mask>
<path d="M10 -2H30C33.3137 -2 36 0.686292 36 4H32C32 2.89543 31.1046 2 30 2H10V-2ZM36 22C36 25.3137 33.3137 28 30 28H10V24H30C31.1046 24 32 23.1046 32 22H36ZM10 26V0V26ZM30 -2C33.3137 -2 36 0.686292 36 4V22C36 25.3137 33.3137 28 30 28V24C31.1046 24 32 23.1046 32 22V4C32 2.89543 31.1046 2 30 2V-2Z" fill="white" mask="url(#path-1-inside-1_45_316)"/>
<path d="M1 4C1 2.34315 2.34315 1 4 1H11V25H4C2.34315 25 1 23.6569 1 22V4Z" stroke="white" stroke-width="2"/>
<path d="M24 9L20 13L24 17" stroke="white" stroke-width="2"/>
</svg>
