<svg width="80" height="25" viewBox="0 0 80 25" fill="none" xmlns="http://www.w3.org/2000/svg">
<rect opacity="0.2" x="26.9873" y="3.31104" width="39.5294" height="16.9412" fill="black"/>
<path fill-rule="evenodd" clip-rule="evenodd" d="M19.7177 1.48511C22.9967 3.92464 25.1332 7.8324 25.1341 12.2522C25.1332 16.2729 23.3647 19.871 20.5769 22.3256H79.7327V1.48511H19.7177ZM31.4522 4.77641C31.8212 4.77641 32.1374 4.83194 32.3953 4.93923C32.6551 5.04841 32.8659 5.19147 33.0297 5.36841C33.1925 5.54629 33.3111 5.74959 33.3864 5.97735C33.4607 6.20417 33.4974 6.44135 33.4974 6.68606C33.4974 6.92417 33.4607 7.15947 33.3864 7.391C33.3111 7.62065 33.1925 7.82582 33.0297 8.00276C32.8659 8.1797 32.656 8.3237 32.3953 8.43194C32.1374 8.54017 31.8212 8.59476 31.4522 8.59476H30.0857V10.7284H28.7849V4.77641H31.4522ZM31.0955 7.57735C31.2442 7.57735 31.3892 7.56606 31.5257 7.54441C31.664 7.52276 31.7854 7.47947 31.8908 7.41547C31.9953 7.35147 32.08 7.26112 32.144 7.14441C32.208 7.0277 32.2391 6.87429 32.2391 6.68606C32.2391 6.49688 32.208 6.34441 32.144 6.22676C32.0809 6.111 31.9962 6.0197 31.8908 5.95759C31.7864 5.89264 31.6649 5.85029 31.5257 5.8277C31.3882 5.80512 31.2442 5.79382 31.0955 5.79382H30.0857V7.57829L31.0955 7.57735ZM37.1369 10.8621C37.9266 10.8621 38.5449 10.6663 38.9929 10.2738C39.44 9.88229 39.664 9.2837 39.6649 8.479V4.77641H38.3642V8.479C38.3642 8.92323 38.2758 9.24982 38.0988 9.45782C37.9219 9.6677 37.6019 9.77029 37.1379 9.77029C36.8734 9.77029 36.6616 9.73359 36.5045 9.65829C36.3473 9.583 36.224 9.48512 36.1355 9.36747C36.0471 9.24794 35.9887 9.11053 35.9614 8.95523C35.9341 8.79806 35.9191 8.63994 35.9191 8.479V4.77641H34.6193V8.47806C34.6193 9.28841 34.8386 9.88982 35.2772 10.2785C35.7167 10.6672 36.336 10.8621 37.1369 10.8621ZM43.9981 4.77641C44.2814 4.77641 44.5365 4.80182 44.7671 4.85264C44.9986 4.90253 45.1991 4.98441 45.3657 5.09735C45.5313 5.21123 45.6593 5.36276 45.7487 5.55194C45.8419 5.74111 45.8861 5.97547 45.8861 6.25312C45.8861 6.55241 45.8193 6.80276 45.6819 7.00229C45.5464 7.20182 45.3478 7.36747 45.0824 7.49359C45.4466 7.599 45.7186 7.78441 45.8965 8.04794C46.0762 8.31241 46.1657 8.63053 46.1657 9.00323C46.1657 9.30347 46.1073 9.56323 45.9915 9.78347C45.8758 10.0018 45.7195 10.1806 45.5228 10.3199C45.328 10.4592 45.104 10.5618 44.8518 10.6286C44.5986 10.6945 44.3426 10.7275 44.0781 10.7275H41.2132V4.77641H43.9981ZM43.8353 7.18582C44.0668 7.18582 44.256 7.13029 44.4057 7.01829C44.5534 6.90723 44.6287 6.72747 44.6287 6.47617C44.6287 6.33782 44.6042 6.223 44.5534 6.13547C44.5035 6.04606 44.4386 5.97735 44.3548 5.92653C44.272 5.87665 44.1779 5.84182 44.0697 5.82394C43.9614 5.80323 43.8504 5.79382 43.7346 5.79382H42.5167V7.18582H43.8353ZM43.9087 9.71288C44.0358 9.71288 44.1572 9.6997 44.2729 9.67523C44.3906 9.65076 44.4904 9.60747 44.5798 9.55006C44.6682 9.4917 44.7379 9.4117 44.7934 9.311C44.8461 9.21312 44.8715 9.08417 44.8715 8.92888C44.8715 8.623 44.784 8.40464 44.6165 8.27382C44.4433 8.14394 44.2165 8.07806 43.9351 8.07806H42.5186V9.71288H43.9087ZM48.7727 9.62817V4.77641H47.472V10.7284H51.6546V9.62817H48.7727ZM54.0489 4.77641V10.7284H52.7482V4.77641H54.0489ZM59.1266 6.0357C59.2424 6.13076 59.3384 6.23994 59.4155 6.36417C59.4927 6.48935 59.5435 6.62676 59.5661 6.77641H60.8264C60.7859 6.43194 60.6937 6.12606 60.5431 5.8597C60.3934 5.59335 60.2042 5.36841 59.9755 5.18864C59.7459 5.00888 59.488 4.87147 59.1972 4.77547C58.9101 4.68229 58.6014 4.63429 58.2748 4.63429C57.8202 4.63429 57.4146 4.71523 57.0522 4.87711C56.6918 5.039 56.3849 5.26017 56.1374 5.54441C55.8908 5.8277 55.6998 6.15994 55.5671 6.54017C55.4325 6.92041 55.3666 7.33264 55.3666 7.77688C55.3666 8.21076 55.4325 8.61547 55.5671 8.991C55.6969 9.36653 55.888 9.69217 56.1374 9.96982C56.3849 10.2494 56.6918 10.4649 57.0522 10.6249C57.4146 10.783 57.8231 10.8621 58.2748 10.8621C58.6381 10.8621 58.9732 10.8065 59.2762 10.6945C59.5821 10.5835 59.8466 10.4225 60.0725 10.2117C60.2984 10.0009 60.4809 9.74394 60.6184 9.44464C60.7548 9.14441 60.8414 8.80841 60.8734 8.4357H59.6151C59.5642 8.83664 59.4259 9.15853 59.2038 9.40323C58.9817 9.64794 58.6711 9.76935 58.272 9.76935C57.9784 9.76935 57.7318 9.71194 57.5275 9.599C57.3242 9.48417 57.1577 9.33359 57.0315 9.14441C56.9026 8.95617 56.8113 8.74347 56.7529 8.50723C56.6946 8.271 56.6654 8.02817 56.6654 7.77688C56.6654 7.51617 56.6946 7.263 56.7529 7.01829C56.8132 6.77453 56.9026 6.55617 57.0315 6.36417C57.1548 6.17312 57.3233 6.0197 57.5275 5.90676C57.7318 5.79288 57.9784 5.73453 58.272 5.73453C58.4339 5.73453 58.5864 5.76088 58.7304 5.81453C58.8772 5.86723 59.0089 5.94065 59.1266 6.0357ZM31.3355 13.1134C31.7167 13.1134 32.0715 13.1736 32.4 13.295C32.7294 13.4183 33.0127 13.6018 33.2527 13.8465C33.4927 14.0912 33.6809 14.3962 33.8165 14.7642C33.952 15.1303 34.0198 15.5623 34.0198 16.0555C34.0198 16.4903 33.9642 16.8912 33.8541 17.2545C33.7431 17.6225 33.5765 17.9397 33.3534 18.207C33.1294 18.4734 32.8508 18.6832 32.5158 18.8357C32.1826 18.9882 31.7892 19.0654 31.3355 19.0654H28.7849V13.1134H31.3355ZM31.2452 17.9642C31.4325 17.9642 31.6151 17.935 31.792 17.8729C31.9689 17.8108 32.1252 17.7091 32.2645 17.5689C32.4019 17.4268 32.5129 17.2404 32.5958 17.0136C32.6786 16.7858 32.72 16.5082 32.72 16.1788C32.72 15.8814 32.6908 15.6094 32.6325 15.3665C32.5741 15.1246 32.48 14.9166 32.3464 14.7472C32.2137 14.5722 32.0395 14.4423 31.8202 14.3501C31.6028 14.2569 31.3337 14.2126 31.0127 14.2126H30.0866V17.9623H31.2452V17.9642ZM35.8447 13.8795C35.5981 14.1628 35.4071 14.4959 35.2744 14.8771C35.1417 15.2564 35.0758 15.6705 35.0758 16.1129C35.0758 16.5468 35.1417 16.9524 35.2744 17.3251C35.4061 17.6988 35.5972 18.0272 35.8447 18.3049C36.0941 18.5835 36.3991 18.7999 36.7605 18.9581C37.1228 19.1162 37.5294 19.1962 37.9821 19.1962C38.4424 19.1962 38.8489 19.1162 39.2085 18.9581C39.5689 18.7999 39.872 18.5835 40.1205 18.3049C40.3671 18.0272 40.5572 17.6988 40.6899 17.3251C40.8245 16.9524 40.8904 16.5468 40.8904 16.1129C40.8904 15.6705 40.8245 15.2564 40.6899 14.8771C40.56 14.4931 40.3699 14.1628 40.1205 13.8795C39.872 13.5934 39.5689 13.3741 39.2085 13.2122C38.8489 13.0503 38.4405 12.9693 37.9821 12.9693C37.5285 12.9693 37.1228 13.0503 36.7605 13.2122C36.3991 13.3741 36.0941 13.5934 35.8447 13.8795ZM36.7398 17.4832C36.6127 17.2941 36.5205 17.0804 36.4621 16.8432C36.4047 16.6079 36.3755 16.3642 36.3746 16.1157C36.3746 15.8522 36.4038 15.599 36.4621 15.3562C36.5205 15.1134 36.6127 14.895 36.7398 14.7021C36.8659 14.511 37.0325 14.3585 37.2358 14.2446C37.4409 14.1317 37.6885 14.0733 37.9812 14.0733C38.2748 14.0733 38.5233 14.1317 38.7266 14.2446C38.9308 14.3585 39.0955 14.511 39.2245 14.7021C39.3506 14.895 39.4438 15.1105 39.5021 15.3562C39.5614 15.6009 39.5887 15.8559 39.5887 16.1157C39.5887 16.3642 39.5605 16.6079 39.5021 16.8432C39.4428 17.0804 39.3506 17.2941 39.2245 17.4832C39.0984 17.6705 38.9327 17.8221 38.7266 17.935C38.5233 18.0498 38.2748 18.1082 37.9812 18.1082C37.6885 18.1082 37.4409 18.0489 37.2358 17.935C37.0334 17.8221 36.8668 17.6705 36.7398 17.4832ZM44.0198 13.1134L45.4033 17.2075H45.4231L46.7322 13.1134H48.5619V19.0654H47.344V14.847H47.3261L45.8758 19.0654H44.8762L43.4268 14.8884H43.4089V19.0654H42.1901V13.1134H44.0198ZM55.3355 19.0654L53.1238 13.1134H51.7873L49.5501 19.0654H50.8602L51.3252 17.7402H53.5369L53.984 19.0654H55.3355ZM52.4518 14.5806L53.1981 16.7651H51.6659L52.4339 14.5806H52.4518ZM57.6245 13.1134V19.0654H56.3238V13.1134H57.6245ZM62.9694 17.1058L60.5007 13.1134H59.2085V19.0654H60.4273V15.0804H60.4442L62.9035 19.0654H64.2052V13.1134H62.9864V17.1058H62.9694Z" fill="white"/>
<path d="M11.2198 1.14819C5.12753 1.14819 0.188232 6.11949 0.188232 12.2522C0.188232 18.384 5.12753 23.3562 11.2207 23.3562C17.3129 23.3562 22.2522 18.384 22.2522 12.2522C22.2513 6.11949 17.312 1.14819 11.2198 1.14819ZM11.2198 21.2743C6.2767 21.2743 2.256 17.2254 2.256 12.2522C2.256 11.2113 2.43388 10.2108 2.75859 9.27996L6.26447 10.8508C6.17035 11.3242 6.11953 11.8164 6.11953 12.3256C6.11953 16.7576 9.40611 18.0065 11.4739 18.0065C12.6946 18.0065 13.7496 17.6094 14.576 17.0287C14.6626 16.9665 14.7445 16.9035 14.8226 16.8414L13.168 15.1021C12.5656 15.6254 11.9322 15.4691 11.7845 15.4691C10.1016 15.4691 9.3967 13.6818 9.38729 12.2494L19.0494 16.5807C19.0607 16.5825 19.0701 16.5825 19.0795 16.5844C17.5548 19.376 14.6033 21.2743 11.2198 21.2743ZM19.8569 14.5562L9.8927 10.0809C10.2522 9.42396 10.8235 8.93172 11.6791 8.93172C12.176 8.93172 12.5694 9.09831 12.88 9.30537C13.0089 9.39949 13.12 9.4936 13.2141 9.58772L15.0099 7.72608C13.8042 6.68325 12.432 6.49502 11.5351 6.49502C9.42776 6.49502 7.936 7.4136 7.056 8.8056L3.72423 7.30913C5.328 4.85455 8.08753 3.22725 11.2188 3.22725C16.1609 3.22725 20.1816 7.27431 20.1816 12.2503C20.1816 13.0541 20.0753 13.8362 19.8776 14.5788C19.8711 14.5722 19.8654 14.5647 19.8569 14.5562Z" fill="white"/>
</svg>
