<svg width="161" height="40" viewBox="0 0 161 40" fill="none" xmlns="http://www.w3.org/2000/svg">
<path d="M60.8624 19.3498C59.7279 18.9716 58.9993 18.7595 58.9993 17.7819C58.9993 17.1178 59.4974 16.6474 60.1522 16.6474C60.7148 16.6474 61.3235 16.9057 61.4157 17.911H63.537C63.4356 15.6145 61.5172 14.7014 60.2168 14.7014C58.3168 14.7014 56.9242 16.1125 56.9242 17.911C56.9242 20.2813 58.7319 20.8162 59.5896 21.1483C60.9823 21.6832 61.7293 21.8953 61.7293 23.0482C61.7293 23.8967 61.0007 24.4593 60.1799 24.4593C59.5435 24.4593 58.7964 24.0812 58.695 22.956H56.5091C56.629 25.4369 58.7226 26.4053 60.1614 26.4053C61.923 26.4053 63.7953 25.2525 63.7953 22.8176C63.7953 20.3827 61.7754 19.6541 60.8531 19.3498" fill="white"/>
<path d="M68.8126 26.1748V16.878H70.9062V14.932H64.6622V16.878H66.7374V26.1748H68.8126Z" fill="white"/>
<path d="M74.8167 21.3143L76.0895 17.8649H76.1171L77.3899 21.3143H74.8075H74.8167ZM76.9195 14.932H75.2963L70.6295 26.1748H72.9168L74.1158 23.2695H78.137L79.336 26.1748H81.6233L76.9195 14.932Z" fill="white"/>
<path d="M83.4863 26.1748H85.5615V16.878H87.6551V14.932H81.4111V16.878H83.4863V26.1748Z" fill="white"/>
<path d="M88.9647 26.1748H95.0058V24.2287H91.0399V21.5725H94.8305V19.6265H91.0399V16.878H95.0058V14.932H88.9647V26.1748Z" fill="white"/>
<path d="M107.549 24.2287H104.127V14.932H102.052V26.1748H107.549V24.2287Z" fill="white"/>
<path d="M111.423 14.932H109.347V26.1748H111.423V14.932Z" fill="white"/>
<path d="M116.827 24.2287H115.785V21.2497H116.873C118.69 21.2497 118.921 22.3011 118.921 22.753C118.921 24.2287 117.233 24.2287 116.827 24.2287ZM115.785 16.878H116.652C117.833 16.878 118.257 17.4222 118.257 18.0954C118.257 19.3129 116.956 19.3129 116.468 19.3129H115.785V16.878ZM120.996 22.8361C120.996 20.9361 119.816 20.309 119.068 20.0415C119.419 19.8478 120.323 19.3129 120.323 17.9018C120.323 17.127 119.926 16.3062 119.364 15.8082C118.395 14.9412 117.15 14.9412 115.905 14.9412H113.691V26.184H116.689C117.418 26.184 118.736 26.1102 119.585 25.5107C120.267 25.0219 120.978 24.1918 120.978 22.8361" fill="white"/>
<path d="M124.75 20.309V16.878H126.087C127.71 16.878 128.089 17.9571 128.089 18.5843C128.089 19.2114 127.803 20.3182 126.087 20.3182H124.75V20.309ZM127.222 22.0244C127.784 21.8861 128.421 21.7385 129.085 21.1021C129.887 20.3274 130.164 19.1561 130.164 18.409C130.164 17.1178 129.481 16.2047 128.845 15.6883C128.208 15.1718 127.406 14.932 126.115 14.932H122.675V26.1748H124.75V21.8769H124.778L127.747 26.1748H130.265L127.222 22.0244Z" fill="white"/>
<path d="M136.684 17.8649H136.712L137.985 21.3143H135.412L136.684 17.8649ZM138.732 23.2695L139.931 26.1748H142.218L137.514 14.932H135.891L131.224 26.1748H133.512L134.711 23.2695H138.732Z" fill="white"/>
<path d="M145.446 16.878H146.783C148.407 16.878 148.785 17.9571 148.785 18.575C148.785 19.193 148.499 20.309 146.783 20.309H145.446V16.878ZM145.446 21.8769H145.474L148.444 26.1748H150.961L147.918 22.0244C148.481 21.8861 149.117 21.7385 149.781 21.0929C150.583 20.3182 150.86 19.1469 150.86 18.3998C150.86 17.1086 150.178 16.1955 149.541 15.679C148.905 15.1625 148.102 14.9228 146.811 14.9228H143.371V26.1655H145.446V21.8676V21.8769Z" fill="white"/>
<path d="M158.617 14.932L156.154 20.0968L153.719 14.932H151.441L155.13 22.0244V26.1748H157.205V22.0244L160.904 14.932H158.617Z" fill="white"/>
<path d="M53.2903 28.5082L50.2744 37.0671H50.2467L47.24 28.5082H45.0542L49.4259 39.751H51.1229L55.4761 28.5082H53.2903Z" fill="white"/>
<path d="M58.8886 28.5082H56.8135V39.751H58.8886V28.5082Z" fill="white"/>
<path d="M66.4884 30.2237C67.7335 30.2237 68.6834 30.7863 69.4858 31.7086H71.8469C70.7678 29.246 68.416 28.2776 66.5529 28.2776C63.3064 28.2776 60.7425 30.9799 60.7425 34.0789C60.7425 37.1778 63.3526 39.9723 66.599 39.9723C68.748 39.9723 70.9062 38.6811 71.7824 36.6152H69.3752C68.8771 37.1501 68.0563 38.0263 66.5529 38.0263C64.57 38.0263 62.8269 36.2186 62.8269 34.1065C62.8269 31.8561 64.6622 30.2144 66.4791 30.2144" fill="white"/>
<path d="M72.5017 28.5082V30.4542H74.5769V39.751H76.6521V30.4542H78.7457V28.5082H72.5017Z" fill="white"/>
<path d="M88.8356 34.1434C88.8356 36.2278 87.1847 38.0355 85.045 38.0355C82.9052 38.0355 81.2543 36.2278 81.2543 34.1434C81.2543 32.059 82.9421 30.2237 85.045 30.2237C87.1478 30.2237 88.8356 31.9852 88.8356 34.1434ZM79.1792 34.1619C79.1792 37.3807 81.8169 39.9816 85.045 39.9816C88.273 39.9816 90.9108 37.3807 90.9108 34.1619C90.9108 30.943 88.2269 28.2776 85.045 28.2776C81.8631 28.2776 79.1792 30.8324 79.1792 34.1619Z" fill="white"/>
<path d="M94.8398 33.8852V30.4542H96.1771C97.8003 30.4542 98.1785 31.5333 98.1785 32.1513C98.1785 32.7692 97.8926 33.8852 96.1771 33.8852H94.8398ZM99.1746 34.6783C99.977 33.9036 100.254 32.7323 100.254 31.9852C100.254 30.694 99.5711 29.7809 98.9348 29.2645C98.2984 28.748 97.496 28.5082 96.2048 28.5082H92.7646V39.751H94.8398V35.4531H94.8674L97.8372 39.751H100.355L97.3115 35.6006C97.8741 35.4623 98.5105 35.3147 99.1746 34.6691" fill="white"/>
<path d="M104.284 28.5082H102.209V39.751H104.284V28.5082Z" fill="white"/>
<path d="M111.072 31.4411H111.1L112.373 34.8905H109.79L111.063 31.4411H111.072ZM110.288 28.5082L105.621 39.751H107.909L109.108 36.8457H113.129L114.328 39.751H116.615L111.911 28.5082H110.288Z" fill="white"/>
<path d="M4.73138 0.86695V6.39151L5.99493 5.66289V0.138336L4.73138 0.86695Z" fill="white"/>
<path d="M10.422 33.9405L12.4326 35.1026L17.994 31.8838L15.9834 30.7217L10.422 33.9405Z" fill="white"/>
<path d="M9.3152 34.5769L3.75375 37.7957L5.75513 38.9578L11.3166 35.7482L9.3152 34.5769Z" fill="white"/>
<path d="M17.7819 34.3371L19.7925 35.4992L22.0152 34.208L20.0046 33.0459L17.7819 34.3371Z" fill="white"/>
<path d="M9.9977 38.8379L12.0083 40L18.6765 36.1356L16.6659 34.9735L9.9977 38.8379Z" fill="white"/>
<path d="M19.0823 31.146L23.1312 33.4886V30.4727L19.0823 28.1393V31.146Z" fill="white"/>
<path d="M11.5472 0V2.26885L14.4247 3.93821V1.66936L11.5472 0Z" fill="white"/>
<path d="M23.1496 6.69586L15.9096 2.50864V4.77749L23.1496 8.96471V6.69586Z" fill="white"/>
<path d="M39.3544 16.9057L36.2278 15.098V16.5368L39.3544 18.3445V16.9057Z" fill="white"/>
<path d="M35.1856 14.4893L34.0051 13.816V15.2363L35.1856 15.9281V14.4893Z" fill="white"/>
<path d="M26.1194 19.7925L34.8167 24.819V23.3802L26.1194 18.3445V19.7925Z" fill="white"/>
<path d="M28.9693 25.9903L32.5479 28.0563V26.6267L28.9693 24.5515V25.9903Z" fill="white"/>
<path d="M32.8799 17.7173L30.0576 16.0756V17.5144L32.8799 19.1469V17.7173Z" fill="white"/>
<path d="M33.9221 18.3168V19.7556L40.4058 23.5001V22.0613L33.9221 18.3168Z" fill="white"/>
<path d="M11.5472 15.9281L27.4937 25.151V22.873L11.5472 13.65V11.3719L23.122 18.0678V15.7989L11.5472 9.10307V6.89878V6.825L23.122 13.5209V11.2428L11.5472 4.54692V2.47176L8.90939 4.00277V17.2746L7.99631 17.8095V22.5317L11.5472 20.475L28.582 30.3343H28.5912V28.0655L11.5472 18.2061V15.9281Z" fill="white"/>
<path d="M7.25847 32.3634L11.1045 30.1407L12.0267 30.6664L13.9451 29.5596L10.3758 27.4937L11.5564 26.8112L11.5472 26.8019L16.546 29.6887V26.6821L14.0374 25.234V23.8229L11.5472 22.3934L8.90939 23.9152V26.1287L7.99631 26.6544V28.8679L5.99493 30.0208V24.902L3.99354 26.0549V31.1921L4.62071 30.8324L7.25847 32.3634Z" fill="white"/>
<path d="M5.99493 13.3825L4.00277 14.5354V24.7729L5.99493 23.62V13.3825Z" fill="white"/>
<path d="M5.99493 6.58519L4.73138 7.3138V12.8291L5.99493 12.1005V6.58519Z" fill="white"/>
<path d="M0 30.9246V33.5163L2.65621 35.0473L3.43094 34.5861L4.35324 35.1211L6.27162 34.0051L2.70233 31.9391L2.00138 32.3449V29.7717L0 30.9246Z" fill="white"/>
<path d="M0 20.6871V29.6518L2.00138 28.4897V19.5342L0 20.6871Z" fill="white"/>
<path d="M0.737837 10.7078V18.9808L2.00138 18.2522V9.97923L0.737837 10.7078Z" fill="white"/>
<path d="M0.737837 7.02788V9.78555L2.00138 9.05694V6.29927L0.737837 7.02788Z" fill="white"/>
</svg>
