<svg xmlns="http://www.w3.org/2000/svg" width="116" height="35" fill="none"><path fill="#fff" d="M44.8352 16.9837c-.7668-.2612-1.2593-.4077-1.2593-1.083 0-.4586.3366-.7836.7793-.7836.3803 0 .7917.1784.8541.8728h1.4339c-.0686-1.5863-1.3653-2.217-2.2444-2.217-1.2843 0-2.2257.9748-2.2257 2.217 0 1.6373 1.222 2.0068 1.8018 2.2361.9414.3695 1.4464.516 1.4464 1.3124 0 .5861-.4926.9747-1.0474.9747-.4302 0-.9352-.2612-1.0038-1.0384h-1.4775c.081 1.7137 1.4962 2.3826 2.4688 2.3826 1.1908 0 2.4564-.7964 2.4564-2.4782 0-1.6818-1.3654-2.1851-1.9888-2.3954m5.3803 4.7147v-6.4216h1.4152v-1.3442h-4.2207v1.3442h1.4028v6.4216h1.4027Zm4.0586-3.3573.8604-2.3826h.0187l.8603 2.3826h-1.7456.0062Zm1.4215-4.4085h-1.0973l-3.1546 7.7658h1.5461l.8105-2.0067h2.7182l.8105 2.0067h1.5461l-3.1795-7.7658Zm4.4389 7.7658h1.4028v-6.4216h1.4152v-1.3442h-4.2207v1.3442h1.4027v6.4216Zm3.7032 0h4.0836v-1.3442h-2.6808v-1.8347h2.5623v-1.3442h-2.5623v-1.8985h2.6808v-1.3442h-4.0836v7.7658Zm12.5623-1.3442h-2.313v-6.4216h-1.4027v7.7658h3.7157v-1.3442Zm2.6186-6.4216h-1.4028v7.7658h1.4028v-7.7658Zm3.6533 6.4216h-.7045v-2.0577h.7357c1.2282 0 1.384.7262 1.384 1.0384 0 1.0193-1.1409 1.0193-1.4152 1.0193Zm-.7045-5.0774h.5861c.798 0 1.0848.3759 1.0848.8409 0 .8409-.8791.8409-1.2095.8409h-.4614v-1.6818Zm3.5225 4.1154c0-1.3123-.798-1.7455-1.303-1.9303.2369-.1338.8479-.5033.8479-1.478 0-.5351-.2681-1.1021-.6484-1.4461-.6546-.5988-1.4963-.5988-2.3379-.5988H80.546v7.7658h2.0262c.4925 0 1.384-.051 1.9576-.4651.4614-.3376.9414-.911.9414-1.8475m2.5498-1.7455v-2.3699h.904c1.0973 0 1.3529.7454 1.3529 1.1786 0 .4332-.1933 1.1977-1.3529 1.1977h-.904v-.0064Zm1.6709 1.1849c.3803-.0955.8104-.1975 1.2593-.637.5424-.5352.7294-1.3442.7294-1.8603 0-.8918-.4613-1.5225-.8915-1.8793-.4302-.3567-.9726-.5224-1.8454-.5224h-2.3254v7.7658h1.4027v-2.9687h.0187l2.0075 2.9687h1.702l-2.0573-2.8668Zm6.3965-2.8731h.0187l.8603 2.3826H95.228l.8604-2.3826Zm1.384 3.7332.8105 2.0067h1.5461l-3.1795-7.7658h-1.0973l-3.1546 7.7658h1.5461l.8105-2.0067h2.7182Zm4.5386-4.4149h.904c1.097 0 1.353.7454 1.353 1.1722 0 .4269-.193 1.1977-1.353 1.1977h-.904v-2.3699Zm0 3.4529h.019l2.007 2.9687h1.702l-2.057-2.8668c.38-.0955.81-.1974 1.259-.6434.543-.5351.73-1.3442.73-1.8602 0-.8919-.462-1.5226-.892-1.8793-.43-.3568-.972-.5224-1.845-.5224h-2.326v7.7658h1.403v-2.9688.0064Zm8.903-4.7971-1.665 3.5676-1.646-3.5676h-1.54l2.494 4.899v2.8668h1.403v-2.8668l2.5-4.899h-1.546Zm-71.1973 9.3775-2.0386 5.9119h-.0187l-2.0324-5.9119h-1.4776l2.9551 7.7657h1.1472l2.9426-7.7657h-1.4776Zm3.7844 0h-1.4027v7.7657h1.4027v-7.7657Zm5.1371 1.185c.8416 0 1.4838.3886 2.0262 1.0257h1.596c-.7294-1.701-2.3192-2.3699-3.5786-2.3699-2.1945 0-3.9276 1.8666-3.9276 4.0071 0 2.1405 1.7643 4.0708 3.9588 4.0708 1.4526 0 2.9115-.8919 3.5037-2.3189h-1.6271c-.3367.3695-.8916.9747-1.9078.9747-1.3404 0-2.5187-1.2486-2.5187-2.7075 0-1.5544 1.2407-2.6884 2.4689-2.6884m4.0711-1.1786v1.3442h1.4028v6.4215h1.4027v-6.4215h1.4152v-1.3442h-4.2207Zm11.0411 3.8925c0 1.4398-1.1159 2.6884-2.5623 2.6884-1.4464 0-2.5624-1.2486-2.5624-2.6884 0-1.4398 1.1409-2.7075 2.5624-2.7075 1.4214 0 2.5623 1.2168 2.5623 2.7075Zm-6.5274.0127c0 2.2234 1.783 4.0199 3.9651 4.0199 2.182 0 3.9651-1.7965 3.9651-4.0199 0-2.2233-1.8142-4.0644-3.9651-4.0644s-3.9651 1.7646-3.9651 4.0644Zm10.5861-.1912v-2.3698h.904c1.0972 0 1.3528.7453 1.3528 1.1722 0 .4268-.1932 1.1976-1.3528 1.1976h-.904Zm2.9302.5479c.5424-.5351.7294-1.3442.7294-1.8602 0-.8919-.4614-1.5226-.8915-1.8794-.4302-.3567-.9726-.5223-1.8454-.5223h-2.3255v7.7657h1.4028v-2.9687h.0187l2.0075 2.9687h1.702l-2.0574-2.8667c.3803-.0956.8105-.1975 1.2594-.6435m3.4538-4.2555h-1.4027v7.7657h1.4027v-7.7657Zm4.5885 2.0258h.0187l.8603 2.3826h-1.7456l.8603-2.3826h.0063Zm-.53-2.0258-3.1546 7.7657h1.5462l.8104-2.0067h2.7182l.8105 2.0067h1.5461l-3.1795-7.7657h-1.0973ZM6.89258 4.21715v3.816l.85411-.50328v-3.816l-.85411.50328ZM10.7393 27.0622l1.3591.8027 3.7593-2.2233-1.3591-.8027-3.7593 2.2233Zm-.75436.4398-3.75935 2.2233 1.3591.8027 3.75931-2.217-1.35906-.809Zm5.72946-.1658 1.3591.8027 1.5025-.8919-1.3592-.8027-1.5024.8919Zm-5.262 3.109 1.3591.8027 4.5075-2.6693-1.3591-.8027-4.5075 2.6693Zm6.1409-5.3132 2.7369 1.6181v-2.0832l-2.7369-1.6117v2.0768ZM11.4998 3.61865v1.56717l1.9451 1.15309V4.77173l-1.9451-1.15308Zm7.8429 4.62469-4.894-2.89227v1.56718l4.894 2.89226V8.24334ZM30.2966 15.296l-2.1135-1.2486v.9938l2.1135 1.2486v-.9938Zm-2.8179-1.6693-.798-.4651v.9811l.798.4778v-.9938Zm-6.1286 3.663 5.879 3.472v-.9938l-5.879-3.4783v1.0001Zm1.9265 4.2813 2.419 1.427v-.9875l-2.419-1.4334v.9939Zm2.6433-5.7149-1.9077-1.1339v.9938l1.9077 1.1276v-.9875Zm.7046.4144v.9938l4.3828 2.5865v-.9938l-4.3828-2.5865Z"/><path fill="#fff" d="m11.4999 14.6204 10.7793 6.3706v-1.5735l-10.7793-6.3706v-1.5736l7.8241 4.6251v-1.5672l-7.8241-4.62504V8.33262l7.8241 4.62508v-1.5736l-7.8241-4.62503V5.32568L9.71682 6.38321v9.16729l-.61721.3695v3.2618l2.40029-1.4207 11.5149 6.8102h.0063v-1.5671L11.4999 16.194v-1.5736Z"/><path fill="#fff" d="m8.60078 25.9731 2.59972-1.5354.6235.3632 1.2967-.7645-2.4127-1.427.798-.4714-.0062-.0064 3.379 1.994v-2.0768l-1.6957-1.0002v-.9747l-1.6833-.9875-1.78306 1.0512v1.5289l-.61721.3632v1.5289l-1.35286.7963v-3.5357l-1.35287.7964v3.5484l.42394-.2485 1.78304 1.0576Zm-.85411-13.1108-1.35287.7963V20.73l1.35287-.7963v-7.0714Zm.00002-4.69531-.85411.50328v3.80963l.85411-.5033V8.16699ZM3.69434 24.9789v1.7902h.00623l1.78928 1.0575.52369-.3185.62344.3695 1.29676-.7709-2.41272-1.427-.47382.2803v-1.7774l-1.35286.7963Zm0-7.0712v6.1922l1.35286-.8027v-6.1859l-1.35286.7964Zm.49878-6.8932v5.7145l.85411-.5033v-5.7145l-.85411.5033Zm0-2.54149v1.90479l.85411-.50326V7.96973l-.85411.50328Z"/></svg>
